<svg width="17" height="17" fill="none" xmlns="http://www.w3.org/2000/svg"><g clip-path="url(#clip0)" fill="#0096FF"><path d="M11.383 2.372H2.9A1.76 1.76 0 001.14 4.13v8.484c0 .97.788 1.758 1.758 1.758h8.484a1.76 1.76 0 001.758-1.758V4.13a1.76 1.76 0 00-1.758-1.758zm-4.219 9.14A3.168 3.168 0 014 8.35a3.168 3.168 0 013.164-3.164 3.168 3.168 0 013.164 3.164 3.168 3.168 0 01-3.164 3.164zm3.516-5.624a1.056 1.056 0 010-2.11 1.056 1.056 0 010 2.11z"/><path d="M10.68 4.482a.352.352 0 100 .703.352.352 0 000-.703zM7.164 5.888a2.464 2.464 0 00-2.46 2.46 2.464 2.464 0 002.46 2.462 2.464 2.464 0 002.461-2.461 2.464 2.464 0 00-2.46-2.461z"/></g><defs><clipPath id="clip0"><path fill="#fff" transform="translate(1.14 2.372)" d="M0 0h12v12H0z"/></clipPath></defs></svg>